PathFileType	4	(X/Y/Z)	C:/Users/opensim2020/Desktop/walking_exp_matlab/subject06_walking17_straight_03.trc	
DataRate	CameraRate	NumFrames	NumMarkers	Units	OrigDataRate	OrigDataStartFrame	OrigNumFrames	
100.00	100.00	9	45	mm	100.00	3392	295	
Frame#	Time	LFHD			RFHD			LBHD			RBHD			C7			T10			CLAV			STRN			RBAK			LSHO			LUPA			LELB			LFRM			LWRA			LWRB			LFIN			RSHO			RUPA			RELB			RFRM			RWRA			RWRB			RFIN			LASI			RASI			LPSI			RPSI			LTHI			LKNE			LTIB			LANK			LHEE			LTOE			RTHI			RKNE			RTIB			RANK			RHEE			RTOE			*39			*40			*41			*42			*43			*44			
		X1	Y1	Z1	X2	Y2	Z2	X3	Y3	Z3	X4	Y4	Z4	X5	Y5	Z5	X6	Y6	Z6	X7	Y7	Z7	X8	Y8	Z8	X9	Y9	Z9	X10	Y10	Z10	X11	Y11	Z11	X12	Y12	Z12	X13	Y13	Z13	X14	Y14	Z14	X15	Y15	Z15	X16	Y16	Z16	X17	Y17	Z17	X18	Y18	Z18	X19	Y19	Z19	X20	Y20	Z20	X21	Y21	Z21	X22	Y22	Z22	X23	Y23	Z23	X24	Y24	Z24	X25	Y25	Z25	X26	Y26	Z26	X27	Y27	Z27	X28	Y28	Z28	X29	Y29	Z29	X30	Y30	Z30	X31	Y31	Z31	X32	Y32	Z32	X33	Y33	Z33	X34	Y34	Z34	X35	Y35	Z35	X36	Y36	Z36	X37	Y37	Z37	X38	Y38	Z38	X39	Y39	Z39	X40	Y40	Z40	X41	Y41	Z41	X42	Y42	Z42	X43	Y43	Z43	X44	Y44	Z44	X45	Y45	Z45	

185	1.840	-1053.74841	369.43573	1652.09412	-923.08093	356.20941	1638.27148	-1070.20374	240.16199	1592.87585	-941.74463	227.87340	1583.69092	-1007.24176	237.04541	1438.52051	-992.78400	199.07381	1109.24390	-1003.29938	345.47452	1359.50110	-1002.31665	383.23083	1184.74536	-919.81512	160.67934	1271.86621	-1167.11133	290.77631	1385.07996	-1231.26807	255.89769	1184.30957	-1238.61328	229.73061	1074.84094	-1258.86572	229.53749	923.71631	-1217.77808	276.02386	802.65918	-1251.97424	212.86476	805.70111	-1253.24609	242.10277	719.56927	-843.09387	303.51810	1395.80151	-750.00793	284.40149	1197.13013	-733.96124	307.71271	1077.82227	-717.62073	346.32404	964.03656	-753.25256	430.87253	839.85535	-709.46112	381.23462	831.53583	-708.65607	433.38034	765.67102	-1091.72803	389.26819	954.80249	-872.98224	368.18094	951.54358	-1081.07800	227.53038	979.37103	-912.29907	219.66010	979.07764	-1165.44922	366.37939	642.85504	-1138.56738	397.89767	484.98856	-1131.84680	418.46051	230.03293	-1089.68481	455.59796	62.67205	-1041.43469	419.15012	47.45673	-1086.29395	602.38385	41.67525	-834.23462	265.03143	620.33221	-853.91101	243.64455	494.77924	-862.04688	89.37447	270.17377	-911.51361	1.53770	105.57381	-957.15417	-42.70206	96.08054	-915.61823	136.24242	30.06684	-1005.55310	262.09720	1685.20581															 
186	1.850	-1055.25476	376.90283	1653.14038	-924.62830	363.33237	1639.31409	-1072.04651	247.77306	1593.71582	-943.69965	235.12671	1584.54236	-1009.00299	244.53590	1439.32544	-994.39484	207.05310	1110.21069	-1004.79169	353.24011	1360.50146	-1003.75476	391.16724	1185.81348	-921.71417	168.44646	1272.61438	-1168.67419	298.96274	1385.97949	-1232.93921	265.18530	1184.97754	-1240.42188	239.36697	1075.37756	-1260.45190	239.56520	924.31580	-1218.79431	285.41547	803.22974	-1253.77124	222.96399	806.27991	-1254.51697	252.06023	720.08881	-844.67029	310.73865	1396.91040	-751.99756	290.87186	1198.15308	-735.92737	314.17517	1078.78271	-719.28467	351.90829	964.72614	-754.44464	435.66156	839.97064	-710.57404	385.98941	832.07709	-709.58441	437.58658	765.84552	-1093.37756	397.46143	956.29401	-874.69196	376.43079	952.47479	-1082.67383	235.67714	980.70715	-914.09137	227.91954	979.78680	-1166.60278	373.73917	643.97620	-1139.77063	404.52173	485.70187	-1132.83716	422.81378	230.12794	-1089.52905	456.68515	62.69878	-1041.34363	419.55905	47.91360	-1085.88159	603.24103	40.86490	-835.04327	274.42554	620.85150	-854.27643	253.81067	495.14459	-862.22058	95.85429	273.11844	-911.25958	4.72919	110.07347	-956.80408	-39.58303	102.12336	-915.76971	136.52435	30.06405	-1007.42249	269.38416	1686.10059															 
187	1.860	-1056.82458	384.37946	1654.38867	-926.26117	370.52545	1640.60425	-1074.00024	255.45729	1594.78259	-945.60803	242.49681	1585.79724	-1010.81830	252.16153	1440.32947	-996.03345	215.05283	1111.38306	-1006.26465	360.97592	1361.71350	-1005.18359	399.08975	1187.09375	-923.50427	176.14664	1273.65894	-1170.27734	307.07416	1387.11743	-1234.58960	274.42508	1185.86755	-1242.20276	249.05673	1076.22925	-1262.15601	249.83737	925.15759	-1219.70618	295.67944	804.27917	-1255.50525	233.68625	807.05597	-1255.57837	262.77530	720.89734	-846.23932	317.99524	1398.25049	-753.84650	297.38171	1199.43750	-737.91815	320.53052	1079.97974	-721.03510	357.52823	965.66345	-755.68744	440.48343	840.31671	-712.28937	390.20551	832.61182	-710.55908	441.39798	766.14453	-1095.26123	405.59677	957.79211	-876.50061	384.66107	953.52057	-1084.36096	243.92247	982.10040	-915.93304	236.15410	980.67163	-1167.62585	381.15488	645.08459	-1140.75708	411.10333	486.52658	-1133.45862	426.88446	230.67329	-1089.38025	457.69327	62.84847	-1041.56836	419.95419	48.20972	-1084.42493	603.94019	40.21092	-835.70807	284.21228	621.36401	-854.53833	264.63660	495.56439	-862.29272	102.89819	276.35056	-910.64465	8.40085	115.33099	-956.44122	-35.76262	108.58720	-915.95142	136.85759	30.09992	-1009.32788	276.75198	1687.23047															 
188	1.870	-1058.44788	391.98325	1655.64001	-927.89795	377.74652	1642.01465	-1075.87195	263.03418	1596.01050	-947.52332	249.69499	1587.05237	-1012.56512	259.69556	1441.50439	-997.82098	223.01181	1112.66638	-1007.77411	368.65268	1363.04871	-1006.62714	407.05499	1188.47351	-925.19049	183.87073	1274.90442	-1171.79736	315.07098	1388.44580	-1236.39319	284.06204	1187.09070	-1243.98987	258.99054	1077.28625	-1263.68652	260.69440	926.17487	-1220.79736	306.07501	805.46667	-1257.65051	244.52536	808.20410	-1257.02332	273.76184	721.96661	-847.85693	325.24615	1399.76270	-755.60889	303.97528	1200.99866	-739.87860	326.78598	1081.37390	-722.78668	362.89285	966.79553	-756.92432	444.85153	840.58600	-713.57770	394.36316	833.59705	-711.75696	445.13324	766.55408	-1097.26367	413.67621	959.30469	-878.41364	392.84131	954.72144	-1086.15063	252.19984	983.53595	-917.88269	244.48911	981.72284	-1168.57544	388.51691	646.17773	-1141.55432	417.52847	487.35242	-1133.74951	430.53201	231.42822	-1089.21948	458.41943	63.03915	-1041.76331	420.10236	48.48117	-1083.23438	604.50128	39.83710	-836.44342	294.25754	622.04230	-854.54102	275.92877	496.00351	-862.19800	110.47459	279.81677	-910.24017	12.57524	120.65372	-956.06085	-31.24187	115.51512	-916.03235	137.18141	30.14928	-1011.23383	284.16037	1688.55017															 
189	1.880	-1060.07910	399.55087	1657.02002	-929.59967	385.11816	1643.56604	-1077.73218	270.65866	1597.37903	-949.43805	257.03458	1588.54614	-1014.31787	267.27039	1442.75000	-999.73816	230.96866	1114.05005	-1009.27527	376.33948	1364.47961	-1008.14319	415.00974	1190.02197	-926.87402	191.71283	1276.05396	-1173.40906	323.11359	1390.01135	-1238.14771	293.33868	1188.42163	-1245.82568	268.90173	1078.52026	-1265.44434	271.54156	927.44720	-1221.98193	316.75610	806.82941	-1259.56873	255.93741	809.32306	-1258.70203	285.16061	723.13879	-849.55878	332.50827	1401.33777	-757.25922	310.54962	1202.66907	-741.70361	332.85007	1082.84595	-724.49756	368.19730	968.00946	-758.25726	449.30981	841.09937	-715.30273	398.67233	834.39313	-713.09686	448.85406	767.04883	-1099.34021	421.60117	960.71906	-880.49902	401.09494	956.14813	-1088.02856	260.41232	984.87982	-919.89191	252.69241	982.83374	-1169.52307	395.57837	647.11841	-1142.78564	423.64871	488.11392	-1133.85046	433.45593	231.90518	-1089.03528	458.88168	63.12013	-1041.82080	420.27744	48.70259	-1082.58057	604.90045	39.54319	-837.06689	304.72382	622.86591	-854.23871	287.72485	496.43433	-861.87769	118.60957	283.46597	-909.47162	17.46117	126.31887	-955.64771	-26.06085	122.83011	-916.05261	137.71312	30.27172	-1013.18689	291.74222	1690.02917															 
190	1.890	-1061.69714	407.19131	1658.25061	-931.26508	392.46249	1644.91492	-1079.60083	278.26019	1598.74768	-951.31744	264.40005	1590.05212	-1016.11084	274.81506	1443.96240	-1001.80658	238.81595	1115.45813	-1010.81030	383.98956	1365.90601	-1009.69373	422.99490	1191.51074	-928.49829	199.46704	1277.44983	-1174.91125	331.06598	1391.57458	-1239.93225	302.60004	1189.90588	-1247.75244	278.89554	1079.91016	-1267.34045	282.37576	928.85339	-1223.35913	327.56079	808.29492	-1261.77539	267.41803	810.77197	-1260.21509	297.08948	724.62109	-851.31696	339.78128	1402.85315	-758.86584	317.26089	1204.38818	-743.52161	338.79044	1084.30835	-726.16333	373.32993	969.26978	-759.60907	453.77896	841.69489	-716.86749	402.89056	835.37250	-714.59009	452.46463	767.47797	-1101.39893	429.60098	962.10217	-882.68658	409.12711	957.58728	-1089.98926	268.48154	986.16620	-921.99817	260.80432	983.96954	-1170.61414	402.50140	647.99817	-1143.95801	428.88577	488.53430	-1134.04907	435.72131	232.08603	-1088.91064	459.28760	63.15205	-1041.78906	420.52615	48.84880	-1082.56250	605.20172	39.22601	-837.57330	315.26764	623.71014	-853.63629	299.97559	497.09213	-861.45209	127.61622	287.02600	-908.93585	23.05827	132.05276	-955.30463	-19.91571	130.44017	-916.24261	138.40289	30.39277	-1015.07892	299.22562	1691.41602															 
191	1.900	-1063.32019	414.76273	1659.40967	-932.93848	399.72647	1646.17383	-1081.44092	285.81393	1600.03149	-953.17328	271.70483	1591.51367	-1017.89117	282.23810	1445.02271	-1003.95526	246.65233	1116.69641	-1012.38208	391.58707	1367.28540	-1011.32770	430.86328	1192.95471	-930.16840	206.97423	1278.81921	-1176.44763	338.94345	1393.16870	-1241.74817	311.73160	1191.42920	-1249.67615	288.87262	1081.30127	-1269.14270	293.63675	930.27924	-1224.76550	338.87540	809.93066	-1263.85962	279.26917	812.14435	-1261.93958	309.32956	726.08118	-853.16705	347.01892	1404.31335	-760.39777	324.21521	1206.06152	-745.31824	344.65976	1085.76294	-727.81049	378.48248	970.43060	-761.00427	458.17734	842.24304	-718.38141	407.06085	836.33044	-716.17041	456.06607	767.87439	-1103.32703	437.52490	963.32220	-884.83881	417.03461	959.10541	-1092.08435	275.91849	987.39539	-924.14307	268.76700	985.15094	-1171.81824	408.93924	648.64185	-1145.33728	433.38947	488.65707	-1134.34949	437.56464	232.15753	-1088.77795	459.59576	63.09877	-1041.77429	420.79874	48.93185	-1082.59058	605.51544	38.94980	-837.79492	326.12900	624.65857	-852.80255	312.40472	497.77173	-860.86694	137.53578	290.53476	-908.19141	29.43159	138.07677	-954.88776	-12.90924	138.20554	-916.13373	139.36609	30.77193	-1016.97070	306.78931	1692.76465															 
192	1.910	-1064.91150	422.31876	1660.46179	-934.50366	407.07669	1647.33655	-1083.23535	293.36655	1601.26575	-954.97766	278.94876	1592.83337	-1019.65295	289.64398	1446.00989	-1006.25659	254.39102	1117.81750	-1013.93286	399.16849	1368.51599	-1012.98822	438.68399	1194.21997	-932.10919	214.77817	1279.77454	-1178.02185	346.79535	1394.76709	-1243.69495	320.89655	1192.98010	-1251.71313	298.79642	1082.62439	-1271.14673	304.88129	931.70990	-1226.29810	350.57651	811.59583	-1265.99500	291.36234	813.47083	-1263.73267	321.93619	727.53687	-855.01965	354.20871	1405.55847	-761.93878	331.06888	1207.55762	-747.06299	350.47211	1087.02881	-729.37689	383.46036	971.51123	-762.36182	462.55981	842.73608	-719.66785	411.25720	837.30756	-717.91266	459.81583	768.20203	-1105.27039	445.38528	964.32159	-886.91833	424.77704	960.50769	-1094.13245	283.92014	988.45398	-926.25977	276.60608	986.22406	-1173.11951	414.76126	649.07117	-1146.87256	437.28058	488.62601	-1134.63672	439.00101	232.04620	-1088.62183	459.76465	63.05170	-1041.66333	420.90036	48.94247	-1082.64954	605.80933	38.68373	-837.79767	337.05731	625.61218	-851.71814	325.40897	498.59354	-859.85590	147.93094	294.12497	-907.42841	36.58992	144.18533	-954.51495	-5.11981	146.15900	-916.45703	140.62309	31.15329	-1018.81134	314.26834	1693.99194															 
193	1.920	-1066.45667	429.92532	1661.45557	-936.09088	414.34927	1648.39270	-1085.00208	300.86536	1602.38879	-956.75519	286.23462	1594.01465	-1021.42340	297.14902	1446.78906	-1008.58014	262.20392	1118.73694	-1015.56647	406.74783	1369.64063	-1014.72363	446.51941	1195.37939	-934.21930	222.33252	1280.62183	-1179.63770	354.66553	1396.26392	-1245.70764	330.03116	1194.43164	-1253.87598	308.81729	1083.91223	-1273.15002	316.23865	932.97833	-1227.90149	362.88013	813.43842	-1268.17285	303.74866	814.67230	-1265.65942	334.94809	729.02679	-856.84534	361.36673	1406.61011	-763.48364	337.71262	1208.78552	-748.85254	356.28671	1088.15100	-730.94983	388.55081	972.42236	-763.72064	466.99341	843.11218	-721.31177	415.57620	837.84583	-719.50415	463.43985	768.32111	-1107.06970	453.14493	965.06165	-888.96210	432.30695	961.82056	-1096.14539	291.85406	989.35266	-928.38733	284.23529	987.23193	-1174.42200	420.12006	649.34766	-1148.44995	440.93326	488.51584	-1134.94983	440.20706	231.97464	-1088.42773	459.87164	63.02618	-1041.53467	420.97992	48.90900	-1082.73010	606.14832	38.39796	-837.71222	348.22580	626.44891	-850.71393	338.56070	499.05759	-859.49707	159.38550	297.21109	-906.57153	44.35818	150.32532	-953.95471	3.27999	154.15483	-916.30011	142.19543	32.02712	-1020.56152	321.81937	1695.08447															 
